<svg width="60" height="60" viewBox="0 0 60 60" fill="none" xmlns="http://www.w3.org/2000/svg">
<g id="Group 270989537">
<circle id="Ellipse 1858" cx="30" cy="30" r="30" fill="#FF5500"/>
<g id="19+">
<path d="M20.6949 23.1055V35.9824H19.1384V25.1373L16 26.3336V24.8647L20.4509 23.1055H20.6949Z" fill="white"/>
<path d="M26.8202 34.6191H26.9801C27.8775 34.6191 28.6067 34.4871 29.1677 34.2233C29.7286 33.9594 30.1605 33.6046 30.4634 33.159C30.7663 32.7134 30.9738 32.212 31.086 31.6549C31.1982 31.092 31.2543 30.5144 31.2543 29.9222V27.9608C31.2543 27.3802 31.1898 26.8642 31.0608 26.4127C30.9374 25.9612 30.7635 25.583 30.5391 25.2781C30.3203 24.9732 30.0707 24.7415 29.7903 24.5832C29.5098 24.4249 29.2125 24.3457 28.8984 24.3457C28.5394 24.3457 28.2169 24.422 27.9308 24.5744C27.6504 24.721 27.412 24.9292 27.2156 25.1989C27.0249 25.4687 26.8791 25.7853 26.7781 26.1488C26.6772 26.5124 26.6267 26.9082 26.6267 27.3363C26.6267 27.7174 26.6715 28.0868 26.7613 28.4445C26.851 28.8022 26.9885 29.1247 27.1736 29.412C27.3587 29.6994 27.5887 29.9281 27.8635 30.0981C28.144 30.2623 28.4721 30.3444 28.8479 30.3444C29.1957 30.3444 29.521 30.274 29.8239 30.1333C30.1324 29.9867 30.4045 29.7903 30.6401 29.544C30.8813 29.2918 31.072 29.0074 31.2122 28.6908C31.3581 28.3742 31.4422 28.0429 31.4646 27.6969H32.205C32.205 28.1836 32.1125 28.6644 31.9274 29.1394C31.7479 29.6085 31.4955 30.0365 31.1701 30.4235C30.8448 30.8106 30.4634 31.1213 30.0259 31.3559C29.5883 31.5846 29.1116 31.6989 28.5955 31.6989C27.9897 31.6989 27.4653 31.5758 27.0221 31.3295C26.579 31.0832 26.2144 30.7548 25.9283 30.3444C25.6479 29.9339 25.4375 29.4765 25.2973 28.9723C25.1627 28.4621 25.0954 27.9461 25.0954 27.4242C25.0954 26.8144 25.1767 26.2427 25.3394 25.7091C25.502 25.1755 25.7432 24.7064 26.0629 24.3018C26.3827 23.8913 26.7781 23.5717 27.2493 23.343C27.7261 23.1143 28.2758 23 28.8984 23C29.5996 23 30.1969 23.1466 30.6906 23.4398C31.1842 23.733 31.5852 24.1258 31.8937 24.6184C32.2079 25.111 32.4378 25.6651 32.5837 26.2808C32.7295 26.8965 32.8024 27.5298 32.8024 28.1806V28.77C32.8024 29.4326 32.7604 30.1069 32.6762 30.793C32.5977 31.4732 32.4434 32.124 32.2135 32.7456C31.9891 33.3672 31.661 33.9242 31.229 34.4168C30.7971 34.9035 30.2334 35.2905 29.5379 35.5778C28.8479 35.8593 27.9953 36 26.9801 36H26.8202V34.6191Z" fill="white"/>
<path d="M43 29.113V30.6434H34.603V29.113H43ZM39.584 25.3748V34.6982H38.0274V25.3748H39.584Z" fill="white"/>
</g>
</g>
</svg>
