<svg width="44" height="41" viewBox="0 0 44 41" fill="none" xmlns="http://www.w3.org/2000/svg">
<g id="cib:visa">
<path id="Vector" d="M31.9825 14.728C30.9585 14.3831 29.8772 14.2091 28.7884 14.2142C25.2725 14.2142 22.7879 15.8696 22.7728 18.2386C22.7439 19.9798 24.5341 20.9613 25.8871 21.5481C27.2773 22.149 27.742 22.5231 27.7351 23.0561C27.7282 23.8774 26.6241 24.2438 25.608 24.2438C24.1959 24.2438 23.43 24.0645 22.2489 23.6032L21.8103 23.4098L21.3097 26.1465C22.1691 26.4732 23.7091 26.7602 25.2986 26.7871C29.0441 26.7871 31.4861 25.1458 31.5136 22.6154C31.5425 21.2278 30.5841 20.1746 28.5422 19.3059C27.3102 18.746 26.5389 18.3642 26.5389 17.7902C26.5389 17.2828 27.1975 16.7498 28.5725 16.7498C29.485 16.7285 30.3922 16.8852 31.2359 17.2098L31.5728 17.3494L32.0664 14.7139L31.9825 14.728ZM41.1221 14.441H38.3721C37.5127 14.441 36.8747 14.655 36.4953 15.4493L31.2097 26.6129H34.9484L35.7019 24.7845L40.2627 24.7909C40.3769 25.2176 40.6986 26.6116 40.6986 26.6116H44L41.1221 14.441ZM17.71 14.3411H21.2699L19.0424 26.5181H15.4825L17.71 14.3347V14.3411ZM8.65837 21.0471L9.02275 22.7422L12.5097 14.441H16.2841L10.6686 26.5924H6.91075L3.83075 16.3027C3.80715 16.2172 3.76511 16.1371 3.70719 16.0673C3.64927 15.9974 3.57669 15.9393 3.49387 15.8965C2.38753 15.3603 1.21389 14.9545 0 14.6883L0.042625 14.4333H5.786C6.56013 14.4602 7.18988 14.6883 7.40438 15.4622L8.65837 21.0535V21.0471ZM36.7166 22.2951L38.1425 18.8857C38.1205 18.9177 38.4354 18.1848 38.6141 17.7236L38.8575 18.7703L39.6825 22.2874H36.7166V22.2951Z" fill="white"/>
</g>
</svg>
