<svg width="41" height="41" viewBox="0 0 41 41" fill="none" xmlns="http://www.w3.org/2000/svg">
<g id="InteracLogo 1" clip-path="url(#clip0_653_732)">
<g id="Clip path group">
<mask id="mask0_653_732" style="mask-type:luminance" maskUnits="userSpaceOnUse" x="-1" y="0" width="42" height="41">
<g id="a">
<path id="Vector" d="M40.9998 0H-0.000183105V41H40.9998V0Z" fill="white"/>
</g>
</mask>
<g mask="url(#mask0_653_732)">
<g id="Group">
<path id="Vector_2" d="M3.99862 0.698486H37.001C37.8764 0.698486 38.7159 1.04622 39.3348 1.66518C39.9538 2.28414 40.3015 3.12363 40.3015 3.99897V37.0012C40.3015 37.8765 39.9538 38.716 39.3349 39.3349C38.716 39.9538 37.8765 40.3015 37.0012 40.3015H3.99814C3.12297 40.3015 2.28364 39.9538 1.6648 39.335C1.04596 38.7162 0.698303 37.8769 0.698303 37.0017V3.99874C0.698303 3.56534 0.783668 3.13619 0.949524 2.73579C1.11538 2.33538 1.35848 1.97156 1.66494 1.66511C1.9714 1.35865 2.33523 1.11555 2.73564 0.949702C3.13605 0.783849 3.56521 0.698486 3.99862 0.698486Z" fill="white"/>
<path id="Vector_3" d="M37.0017 0.698492C37.8769 0.698758 38.7162 1.04659 39.335 1.66552C39.9538 2.28444 40.3014 3.12378 40.3015 3.99898V37.0013C40.3014 37.8764 39.9538 38.7158 39.335 39.3347C38.7162 39.9536 37.8769 40.3013 37.0017 40.3015H3.99881C3.56538 40.3016 3.13617 40.2163 2.73572 40.0505C2.33526 39.8847 1.9714 39.6416 1.66491 39.3351C1.35843 39.0286 1.11534 38.6648 0.949517 38.2643C0.783697 37.8639 0.698401 37.4347 0.698502 37.0013V3.99898C0.698416 3.56555 0.78372 3.13635 0.949543 2.73589C1.11537 2.33543 1.35846 1.97157 1.66493 1.66507C1.97141 1.35858 2.33527 1.11547 2.73572 0.949619C3.13617 0.783771 3.56537 0.698437 3.99881 0.698492H37.0017ZM37.0017 0H3.99881C2.93857 0.00114843 1.92209 0.422845 1.17241 1.17256C0.422728 1.92227 0.00108545 2.93876 0 3.99898V37.0013C0.0011732 38.0614 0.422852 39.0778 1.17252 39.8275C1.92219 40.5772 2.93862 40.9988 3.99881 41H37.0017C38.0618 40.9988 39.0781 40.5771 39.8277 39.8274C40.5773 39.0777 40.9989 38.0614 41 37.0013V3.99898C40.999 2.93882 40.5774 1.92236 39.8278 1.17265C39.0782 0.422935 38.0618 0.00120583 37.0017 0Z" fill="white"/>
<path id="Vector_4" d="M22.811 20.9275L22.8077 13.837L24.6586 13.3977V14.3272C24.6586 14.3272 25.138 13.1048 26.2506 12.8211C26.4168 12.7676 26.5936 12.7557 26.7654 12.7865V14.5957C26.4322 14.6 26.1029 14.6686 25.7956 14.7975C25.1117 15.0676 24.7675 15.6569 24.7675 16.5566L24.7687 20.4718L22.811 20.9275Z" fill="#030725"/>
<path id="Vector_5" d="M13.0542 23.2332C13.0542 23.2332 12.7533 22.782 12.7533 21.1867V17.6561L11.8009 17.8827V16.4283L12.7554 16.2029V14.6175L14.7234 14.1526V15.738L16.114 15.4077V16.8604L14.7234 17.1905C14.7234 17.1905 14.7213 20.0831 14.7234 20.7856C14.7234 22.4202 15.1572 22.734 15.1572 22.734L13.0542 23.2332Z" fill="#030725"/>
<path id="Vector_6" d="M16.3197 19.015C16.3197 17.7545 16.4992 16.8348 16.8846 16.1291C17.3431 15.2915 18.095 14.7457 19.1904 14.4963C21.3495 14.0054 22.1286 15.2833 22.0985 16.9969C22.087 17.6098 22.0898 17.9083 22.0898 17.9083L18.2861 18.8023V18.8637C18.2861 20.061 18.5371 20.6291 19.2958 20.4682C19.9513 20.3299 20.1336 19.9194 20.1854 19.4117C20.1938 19.3298 20.1978 19.1216 20.1978 19.1216L21.9797 18.6946C21.9797 18.6946 21.984 18.8405 21.9814 19.0042C21.9658 19.6846 21.768 21.3723 19.2913 21.9579C16.9453 22.5148 16.3197 21.082 16.3197 19.015ZM19.2695 15.8171C18.6392 15.9601 18.3086 16.5784 18.2943 17.6027L20.2077 17.147C20.211 17.1007 20.2115 16.9986 20.211 16.8386C20.2077 16.0653 19.9687 15.6571 19.2695 15.8171Z" fill="#030725"/>
<path id="Vector_7" d="M33.4264 14.8685C33.3527 12.709 33.9129 10.9952 36.3223 10.4494C37.8578 10.1005 38.4411 10.4999 38.7363 10.886C39.0203 11.2544 39.1299 11.7513 39.1299 12.4472L39.1316 12.5749L37.2466 13.0229C37.2466 13.0229 37.2452 12.7688 37.2452 12.7606C37.2466 11.9353 37.0172 11.6214 36.4178 11.7715C35.7049 11.9506 35.4169 12.6272 35.4169 13.9724C35.4169 14.45 35.4191 14.5356 35.4191 14.6001C35.4191 15.9672 35.6059 16.593 36.4274 16.421C37.14 16.2737 37.2377 15.6479 37.2492 15.0993C37.2506 15.0132 37.2541 14.7375 37.2541 14.7375L39.1363 14.2928C39.1363 14.2928 39.1381 14.4319 39.1381 14.5864C39.1334 16.3791 38.1886 17.5089 36.4185 17.9208C33.9797 18.4925 33.5021 17.0833 33.4264 14.8685Z" fill="#030725"/>
<path id="Vector_8" d="M26.9103 17.8919C26.9103 16.2493 27.8726 15.7298 29.3209 15.1306C30.6233 14.5919 30.6515 14.3244 30.6569 13.8562C30.6642 13.4621 30.4814 13.125 29.833 13.2904C29.6168 13.334 29.4217 13.4493 29.2792 13.6177C29.1367 13.786 29.0553 13.9976 29.0482 14.218C29.0376 14.339 29.0335 14.4605 29.036 14.582L27.2098 15.0132C27.1976 14.6493 27.2401 14.2856 27.3359 13.9343C27.6279 12.9521 28.4941 12.2912 29.9895 11.9452C31.9323 11.4975 32.58 12.3501 32.5824 13.6762V16.8167C32.5824 18.3356 32.8642 18.5581 32.8642 18.5581L31.0715 18.9823C30.9726 18.7752 30.8922 18.5597 30.8313 18.3384C30.8313 18.3384 30.4386 19.3274 29.0849 19.6455C27.6632 19.9808 26.9103 19.0997 26.9103 17.8919ZM30.6445 15.6489C30.3423 15.8608 30.0233 16.0475 29.6907 16.2074C29.0931 16.4994 28.8231 16.8596 28.8231 17.4143C28.8231 17.8947 29.1207 18.2102 29.6615 18.0766C30.2417 17.9302 30.6445 17.3889 30.6445 16.6368V15.6489Z" fill="#030725"/>
<path id="Vector_9" d="M2.76407 28.2037C2.55947 28.2034 2.35871 28.148 2.18295 28.0433C2.00718 27.9385 1.86291 27.7883 1.76531 27.6085C1.66771 27.4287 1.6204 27.2259 1.62836 27.0214C1.63632 26.817 1.69926 26.6184 1.81054 26.4468L1.82325 26.4303L1.84465 26.4246L4.52151 25.7927V27.8256L4.47987 27.8353C3.87265 27.9814 3.14685 28.1477 2.99746 28.1795C2.92073 28.1957 2.8425 28.2038 2.76407 28.2037Z" fill="#030725"/>
<path id="Vector_10" d="M2.76401 30.8043C2.4628 30.8044 2.17388 30.6849 1.96076 30.472C1.74763 30.2592 1.62775 29.9704 1.62745 29.6692C1.62683 29.4497 1.69046 29.2349 1.81048 29.0512L1.82319 29.0321L1.8446 29.0267L4.52145 28.395V30.4279L4.47981 30.4387C3.87259 30.5844 3.14679 30.7526 2.9974 30.7825C2.9205 30.7973 2.84234 30.8047 2.76401 30.8043Z" fill="#030725"/>
<path id="Vector_11" d="M2.76402 33.4099C2.46272 33.4097 2.1738 33.29 1.96071 33.077C1.74761 32.864 1.62775 32.5751 1.62745 32.2738C1.6266 32.0543 1.69025 31.8394 1.81049 31.6558L1.82319 31.6353L4.52145 30.9994V33.0323L4.47981 33.0431C3.83848 33.1974 3.12633 33.3584 2.9974 33.3868C2.92056 33.4022 2.84238 33.4099 2.76402 33.4099Z" fill="#030725"/>
<path id="Vector_12" d="M2.44815 25.7127L2.44745 14.3381L4.52132 13.848V25.2225L2.44815 25.7127Z" fill="#030725"/>
<path id="Vector_13" d="M7.61367 24.745C7.61367 24.4057 7.47887 24.0803 7.23892 23.8403C6.99897 23.6004 6.67352 23.4656 6.33418 23.4656C5.99484 23.4656 5.66939 23.6004 5.42944 23.8403C5.18949 24.0803 5.05469 24.4057 5.05469 24.745L5.0568 35.3763C5.05794 36.2944 5.423 37.1745 6.07197 37.8239C6.72094 38.4733 7.60089 38.839 8.51898 38.8408C9.48757 38.8408 12.1409 38.836 12.1409 38.836L12.1421 34.4009C12.1428 31.9777 12.1432 29.5112 12.1432 29.455C12.1436 29.1793 12.0758 28.9077 11.946 28.6645C11.8162 28.4212 11.6283 28.2138 11.3991 28.0606L8.17102 25.8682C8.17102 25.8682 8.17031 30.628 8.17031 30.8468C8.17031 30.9198 8.14131 30.9898 8.08969 31.0414C8.03807 31.093 7.96805 31.1221 7.89505 31.1221C7.82205 31.1221 7.75203 31.093 7.70041 31.0414C7.64879 30.9898 7.61979 30.9198 7.61979 30.8468C7.61979 30.7934 7.61367 25.4026 7.61367 24.745Z" fill="#030725"/>
<path id="Vector_14" d="M9.34174 16.813C8.94948 16.904 8.5815 17.0787 8.26292 17.325C7.94435 17.5713 7.6827 17.8834 7.49584 18.2401V17.4407L5.62854 17.8825L5.63066 22.9877C5.95821 22.8582 6.3152 22.8217 6.66217 22.8824C7.00915 22.943 7.3326 23.0984 7.59677 23.3314V20.0352C7.59677 19.2456 7.98967 18.6149 8.55101 18.4911C8.97331 18.3985 9.32598 18.5495 9.32598 19.3016L9.32739 24.1108L11.2942 23.6497V18.5622C11.2942 17.3287 10.8192 16.4665 9.34174 16.813Z" fill="#030725"/>
<path id="Vector_15" d="M37.9185 9.533C37.6779 9.53321 37.4428 9.46207 37.2427 9.32859C37.0426 9.1951 36.8866 9.00527 36.7944 8.78311C36.7023 8.56095 36.6781 8.31645 36.7249 8.08054C36.7718 7.84463 36.8875 7.62791 37.0576 7.45781C37.2276 7.2877 37.4443 7.17186 37.6802 7.12493C37.9161 7.078 38.1606 7.1021 38.3828 7.19417C38.605 7.28625 38.7949 7.44216 38.9285 7.64218C39.062 7.84221 39.1333 8.07735 39.1331 8.31787C39.1328 8.63997 39.0048 8.94878 38.777 9.17658C38.5493 9.40438 38.2406 9.53256 37.9185 9.533ZM37.9185 7.25449C37.7082 7.25444 37.5026 7.31675 37.3278 7.43353C37.1529 7.55031 37.0166 7.71632 36.9361 7.91057C36.8556 8.10482 36.8345 8.31857 36.8754 8.52481C36.9164 8.73105 37.0176 8.92051 37.1663 9.06923C37.3149 9.21794 37.5044 9.31924 37.7106 9.36031C37.9168 9.40138 38.1306 9.38037 38.3249 9.29995C38.5191 9.21952 38.6852 9.08329 38.8021 8.90848C38.9189 8.73368 38.9813 8.52814 38.9814 8.31787C38.9812 8.036 38.8691 7.76572 38.6698 7.56636C38.4706 7.367 38.2003 7.25484 37.9185 7.25449Z" fill="#030725"/>
<path id="Vector_16" d="M37.4758 7.5935H37.9997C38.0509 7.58802 38.1027 7.59415 38.1512 7.61144C38.1998 7.62874 38.2438 7.65676 38.28 7.6934C38.3161 7.73005 38.3436 7.77439 38.3603 7.82312C38.377 7.87185 38.3825 7.92372 38.3764 7.97486C38.3764 8.1673 38.291 8.31528 38.1291 8.34046V8.34328C38.2764 8.35834 38.3538 8.4395 38.3613 8.64818C38.3641 8.74228 38.3655 8.85897 38.37 8.94979C38.3701 8.97534 38.3766 9.00046 38.3888 9.02286C38.4011 9.04526 38.4188 9.06422 38.4404 9.078H38.1726C38.1471 9.03876 38.1332 8.99307 38.1326 8.94626C38.1244 8.85756 38.1265 8.77381 38.1225 8.66606C38.1185 8.5042 38.0689 8.43339 37.9063 8.43339H37.7124V9.078H37.4758V7.5935ZM37.9021 8.25459C37.9343 8.25754 37.9667 8.25331 37.997 8.2422C38.0274 8.23109 38.0549 8.21339 38.0775 8.19036C38.1002 8.16733 38.1175 8.13956 38.1281 8.10905C38.1387 8.07853 38.1424 8.04604 38.139 8.01391C38.139 7.85558 38.0705 7.7723 37.9145 7.7723H37.7124V8.25459H37.9021Z" fill="#030725"/>
</g>
</g>
</g>
</g>
<defs>
<clipPath id="clip0_653_732">
<rect width="41" height="41" fill="white"/>
</clipPath>
</defs>
</svg>
