<svg width="45" height="37" viewBox="0 0 45 37" fill="none" xmlns="http://www.w3.org/2000/svg">
<g id="logos:mastercard" clip-path="url(#clip0_653_727)">
<path id="Vector" d="M8.18081 36.3212V33.9385C8.18081 33.025 7.64046 32.4294 6.71427 32.4294C6.25126 32.4294 5.74958 32.5883 5.40224 33.1046C5.13224 32.6677 4.7464 32.4294 4.16755 32.4294C3.78154 32.4294 3.39587 32.5485 3.08702 32.9854V32.5089H2.27667V36.3212H3.08702V34.2164C3.08702 33.5415 3.43437 33.2236 3.97472 33.2236C4.51472 33.2236 4.78507 33.5811 4.78507 34.2164V36.3212H5.59542V34.2164C5.59542 33.5415 5.98109 33.2236 6.48277 33.2236C7.02312 33.2236 7.29312 33.5811 7.29312 34.2164V36.3212H8.18081ZM20.1816 32.5089H18.8697V31.3572H18.0594V32.5089H17.3262V33.2632H18.0592V35.0108C18.0592 35.8845 18.4065 36.4007 19.3327 36.4007C19.6801 36.4007 20.0657 36.2816 20.3361 36.1228L20.1044 35.4079C19.8729 35.5667 19.6029 35.6065 19.4099 35.6065C19.0241 35.6065 18.8697 35.3682 18.8697 34.971V33.2632H20.1816V32.5089ZM27.0504 32.4293C26.5874 32.4293 26.2787 32.6677 26.0857 32.9854V32.5089H25.2754V36.3212H26.0857V34.1768C26.0857 33.5415 26.3557 33.184 26.8574 33.184C27.0117 33.184 27.2047 33.2238 27.3591 33.2634L27.5906 32.4692C27.4362 32.4294 27.2047 32.4294 27.0504 32.4294V32.4293ZM16.6702 32.8265C16.2842 32.5485 15.744 32.4294 15.1651 32.4294C14.2391 32.4294 13.6218 32.9059 13.6218 33.6605C13.6218 34.296 14.0848 34.6533 14.8951 34.7725L15.281 34.8123C15.7055 34.8916 15.937 35.0108 15.937 35.2094C15.937 35.4873 15.6283 35.6859 15.088 35.6859C14.5478 35.6859 14.1233 35.4873 13.8531 35.2888L13.4673 35.9242C13.8918 36.2418 14.4706 36.4007 15.0493 36.4007C16.1298 36.4007 16.7473 35.8845 16.7473 35.1696C16.7473 34.4945 16.2457 34.137 15.4738 34.018L15.088 33.9782C14.7406 33.9384 14.4706 33.8591 14.4706 33.6209C14.4706 33.3428 14.7406 33.184 15.1651 33.184C15.6283 33.184 16.0913 33.3824 16.3228 33.5017L16.6702 32.8265ZM38.2025 32.4294C37.7393 32.4294 37.4306 32.6677 37.2376 32.9854V32.5089H36.4273V36.3212H37.2376V34.1768C37.2376 33.5415 37.5078 33.184 38.0093 33.184C38.1638 33.184 38.3568 33.2238 38.5112 33.2634L38.7427 32.4692C38.5883 32.4294 38.3568 32.4294 38.2025 32.4294ZM27.8608 34.4151C27.8608 35.5667 28.6324 36.4007 29.8288 36.4007C30.369 36.4007 30.7548 36.2816 31.1407 35.964L30.7548 35.2888C30.4461 35.5271 30.1375 35.6461 29.7901 35.6461C29.1341 35.6461 28.6711 35.1696 28.6711 34.4151C28.6711 33.7003 29.1341 33.2236 29.7901 33.184C30.1375 33.184 30.4461 33.303 30.7548 33.5415L31.1407 32.8663C30.7548 32.5485 30.369 32.4294 29.8288 32.4294C28.6324 32.4294 27.8608 33.2634 27.8608 34.4151ZM35.3469 34.4151V32.5089H34.5366V32.9854C34.2664 32.6281 33.8806 32.4294 33.3789 32.4294C32.337 32.4294 31.5267 33.2634 31.5267 34.4151C31.5267 35.5667 32.337 36.4007 33.3789 36.4007C33.9191 36.4007 34.3051 36.2022 34.5366 35.8447V36.3212H35.3469V34.4151ZM32.3755 34.4151C32.3755 33.7399 32.8 33.184 33.4945 33.184C34.1506 33.184 34.6137 33.7003 34.6137 34.4151C34.6137 35.0902 34.1506 35.6461 33.4945 35.6461C32.8 35.6063 32.3755 35.0902 32.3755 34.4151ZM22.69 32.4294C21.6094 32.4294 20.8376 33.2236 20.8376 34.4151C20.8376 35.6065 21.6093 36.4007 22.7285 36.4007C23.2686 36.4007 23.809 36.2418 24.2335 35.8845L23.8475 35.2888C23.5388 35.5271 23.153 35.6859 22.7671 35.6859C22.2655 35.6859 21.7638 35.4477 21.6479 34.7723H24.3878V34.4549C24.4265 33.2236 23.732 32.4294 22.69 32.4294ZM22.69 33.1442C23.1915 33.1442 23.539 33.462 23.616 34.0578H21.6866C21.7638 33.5415 22.1111 33.1442 22.69 33.1442ZM42.7944 34.4151V30.9998H41.9841V32.9854C41.7139 32.6281 41.3281 32.4294 40.8264 32.4294C39.7845 32.4294 38.9742 33.2634 38.9742 34.4151C38.9742 35.5667 39.7845 36.4007 40.8264 36.4007C41.3667 36.4007 41.7526 36.2022 41.9841 35.8447V36.3212H42.7944V34.4151ZM39.8232 34.4151C39.8232 33.7399 40.2475 33.184 40.9422 33.184C41.5982 33.184 42.0612 33.7003 42.0612 34.4151C42.0612 35.0902 41.5982 35.6461 40.9422 35.6461C40.2475 35.6063 39.8232 35.0902 39.8232 34.4151ZM12.7341 34.4151V32.5089H11.9237V32.9854C11.6535 32.6281 11.2677 32.4294 10.766 32.4294C9.72417 32.4294 8.91382 33.2634 8.91382 34.4151C8.91382 35.5667 9.72417 36.4007 10.766 36.4007C11.3064 36.4007 11.6922 36.2022 11.9237 35.8447V36.3212H12.7341V34.4151ZM9.72417 34.4151C9.72417 33.7399 10.1487 33.184 10.8432 33.184C11.4992 33.184 11.9624 33.7003 11.9624 34.4151C11.9624 35.0902 11.4992 35.6461 10.8432 35.6461C10.1487 35.6063 9.72417 35.0902 9.72417 34.4151Z" fill="white"/>
<path id="Vector_2" d="M16.4 3.55786H28.5553V26.0354H16.4V3.55786Z" fill="white" fill-opacity="0.76"/>
<path id="Vector_3" d="M17.1719 14.7967C17.1719 10.2298 19.2556 6.17895 22.4583 3.55783C20.1046 1.65164 17.1334 0.5 13.892 0.5C6.21264 0.5 0 6.89371 0 14.7967C0 22.6995 6.21264 29.0934 13.8918 29.0934C17.1332 29.0934 20.1045 27.9418 22.4583 26.0354C19.2556 23.4541 17.1719 19.3636 17.1719 14.7967Z" fill="white"/>
<path id="Vector_4" d="M44.9553 14.7967C44.9553 22.6995 38.7427 29.0934 31.0635 29.0934C27.8221 29.0934 24.8509 27.9418 22.497 26.0354C25.7384 23.4145 27.7836 19.3636 27.7836 14.7967C27.7836 10.2298 25.6997 6.17895 22.497 3.55783C24.8507 1.65164 27.8221 0.5 31.0635 0.5C38.7427 0.5 44.9553 6.93351 44.9553 14.7967Z" fill="#B3B3B3"/>
</g>
<defs>
<clipPath id="clip0_653_727">
<rect width="45" height="36" fill="white" transform="translate(0 0.5)"/>
</clipPath>
</defs>
</svg>
